# xmcd
#
# Track frame offsets: 
#        150
#        45810
#        62020
#        75227
#        96424
#        127772
#        148594
#        172958
#        201387
#        218645
#
# Disc length: 3604 seconds
#
# Revision: 0
# Processed by: cddbd v1.4PL0 Copyright (c) Steve Scherf et al.
# Submitted via: ExactAudioCopy v0.95a3
#
DISCID=7c0e120a
DTITLE=New Riders of the Purple Sage - Worcester, MA 4-4-73 Disc 2
DYEAR=2003
DGENRE=Country
TTITLE0=Dirty Business
TTITLE1=Down In The Boondocks
TTITLE2=Hello Mary Lou
TTITLE3=You Should Have Seen Me Runnin
TTITLE4=Portland Woman
TTITLE5=Henry
TTITLE6=Glendale Train
TTITLE7=Last Lonely Eagle
TTITLE8=Louisiana Lady
TTITLE9=Willie and the Hand Jive
EXTD=
EXTT0=
EXTT1=
EXTT2=
EXTT3=
EXTT4=
EXTT5=
EXTT6=
EXTT7=
EXTT8=
EXTT9=
PLAYORDER=
